<svg width="120" height="120" viewBox="0 0 120 120" fill="none" xmlns="http://www.w3.org/2000/svg">
<path d="M0.780996 69.6396V56.2846H17.4553V55.5036H0.780996V43.3201H18.5096V42.5391H0V70.4206H18.6658V69.6396H0.780996ZM33.7 50.349L26.7882 59.4476L20.0325 50.349H19.0172L26.3196 60.0334L18.3144 70.4206H19.2515L26.7882 60.6191L34.3638 70.4206H35.3401L27.2958 60.0334L34.6372 50.349H33.7ZM37.683 77.2934V64.7974H37.7611C38.2297 66.6198 39.1539 68.0841 40.5337 69.1905C41.9134 70.297 43.6707 70.8502 45.8054 70.8502C47.1852 70.8502 48.4087 70.5703 49.4761 70.0106C50.5434 69.4509 51.4351 68.6894 52.151 67.7262C52.8669 66.7629 53.4136 65.6435 53.7911 64.3679C54.1686 63.0923 54.3573 61.7516 54.3573 60.3458C54.3573 58.8358 54.1621 57.4431 53.7716 56.1674C53.3811 54.8918 52.8148 53.7854 52.0729 52.8482C51.3309 51.911 50.4328 51.1821 49.3785 50.6614C48.3241 50.1408 47.1331 49.8804 45.8054 49.8804C44.7901 49.8804 43.8464 50.0301 42.9743 50.3295C42.1022 50.6289 41.3277 51.0519 40.6508 51.5986C39.974 52.1453 39.3882 52.7896 38.8936 53.5316C38.399 54.2735 38.0215 55.0871 37.7611 55.9722H37.683V50.349H36.9021V77.2934H37.683ZM45.8054 70.1082C43.3583 70.1082 41.3928 69.2687 39.9089 67.5895C38.425 65.9104 37.683 63.4958 37.683 60.3458C37.683 59.0441 37.8653 57.8075 38.2297 56.636C38.5942 55.4645 39.1214 54.4362 39.8113 53.5511C40.5011 52.666 41.3537 51.9631 42.369 51.4424C43.3843 50.9217 44.5298 50.6614 45.8054 50.6614C47.1071 50.6614 48.246 50.9217 49.2223 51.4424C50.1985 51.9631 51.0055 52.6725 51.6433 53.5706C52.2812 54.4688 52.7628 55.4971 53.0882 56.6556C53.4136 57.814 53.5763 59.0441 53.5763 60.3458C53.5763 61.5173 53.4266 62.6822 53.1272 63.8407C52.8279 64.9992 52.3658 66.0405 51.741 66.9647C51.1162 67.8889 50.3157 68.6438 49.3394 69.2296C48.3632 69.8153 47.1852 70.1082 45.8054 70.1082ZM58.6528 70.4206V59.0571C58.6528 57.9637 58.809 56.8964 59.1214 55.855C59.4338 54.8137 59.9154 53.896 60.5662 53.102C61.2171 52.308 62.0436 51.6832 63.0459 51.2276C64.0482 50.7721 65.2392 50.5833 66.6189 50.6614V49.8804C65.4214 49.8544 64.3736 49.9846 63.4754 50.2709C62.5773 50.5573 61.8028 50.9478 61.152 51.4424C60.5011 51.937 59.9805 52.5163 59.59 53.1801C59.1995 53.844 58.9131 54.5534 58.7309 55.3083H58.6528V50.349H57.8718V70.4206H58.6528ZM67.5952 60.541H84.3866C84.4387 59.1613 84.302 57.8336 83.9766 56.5579C83.6512 55.2823 83.1305 54.1499 82.4146 53.1606C81.6987 52.1713 80.7745 51.3773 79.642 50.7786C78.5096 50.1798 77.1624 49.8804 75.6004 49.8804C74.481 49.8804 73.3876 50.1147 72.3202 50.5833C71.2528 51.0519 70.3157 51.7353 69.5086 52.6334C68.7016 53.5316 68.0508 54.6315 67.5561 55.9331C67.0615 57.2348 66.8142 58.7187 66.8142 60.3848C66.8142 61.8687 66.9834 63.255 67.3218 64.5436C67.6603 65.8323 68.1809 66.9517 68.8838 67.9019C69.5867 68.8521 70.4914 69.5875 71.5978 70.1082C72.7042 70.6289 74.0384 70.8762 75.6004 70.8502C77.8913 70.8502 79.8178 70.2058 81.3798 68.9172C82.9418 67.6285 83.8659 65.8127 84.1523 63.4697H83.3713C83.0329 65.6826 82.1673 67.3422 80.7745 68.4486C79.3817 69.555 77.631 70.1082 75.5223 70.1082C74.0905 70.1082 72.8799 69.8609 71.8907 69.3663C70.9014 68.8716 70.0944 68.1948 69.4696 67.3357C68.8448 66.4766 68.3827 65.4678 68.0833 64.3093C67.7839 63.1508 67.6212 61.8948 67.5952 60.541ZM83.6056 59.76H67.5952C67.6733 58.3542 67.9336 57.0916 68.3762 55.9722C68.8187 54.8528 69.398 53.896 70.1139 53.102C70.8298 52.308 71.6629 51.7027 72.6131 51.2862C73.5633 50.8697 74.5851 50.6614 75.6785 50.6614C76.9802 50.6614 78.1256 50.9022 79.1149 51.3838C80.1041 51.8655 80.9307 52.5228 81.5945 53.3559C82.2584 54.1889 82.7595 55.1586 83.0979 56.2651C83.4364 57.3715 83.6056 58.5365 83.6056 59.76ZM100.592 56.2846H101.373C101.373 54.0457 100.722 52.4187 99.4208 51.4034C98.1191 50.3881 96.3489 49.8804 94.11 49.8804C92.8604 49.8804 91.8061 50.0366 90.947 50.349C90.0879 50.6614 89.385 51.0649 88.8383 51.5596C88.2916 52.0542 87.9011 52.6009 87.6668 53.1997C87.4325 53.7984 87.3153 54.3711 87.3153 54.9178C87.3153 56.0112 87.5106 56.8833 87.9011 57.5342C88.2916 58.185 88.9033 58.6927 89.7364 59.0571C90.3091 59.3175 90.96 59.5518 91.6889 59.76C92.4178 59.9683 93.2639 60.1896 94.2271 60.4239C95.0862 60.6321 95.9323 60.8404 96.7654 61.0487C97.5984 61.2569 98.3339 61.5368 98.9717 61.8882C99.6095 62.2397 100.13 62.6888 100.534 63.2355C100.937 63.7822 101.139 64.4981 101.139 65.3832C101.139 66.2423 100.937 66.9712 100.534 67.57C100.13 68.1687 99.616 68.6569 98.9912 69.0343C98.3664 69.4118 97.67 69.6852 96.9021 69.8544C96.1341 70.0236 95.3856 70.1082 94.6567 70.1082C92.2877 70.1082 90.4719 69.581 89.2092 68.5267C87.9466 67.4723 87.3153 65.8127 87.3153 63.5478H86.5343C86.5343 66.0731 87.2177 67.9214 88.5844 69.0929C89.9512 70.2644 91.9753 70.8502 94.6567 70.8502C95.5158 70.8502 96.3814 70.7525 97.2535 70.5573C98.1256 70.362 98.9066 70.0431 99.5965 69.6006C100.286 69.158 100.846 68.5853 101.276 67.8824C101.705 67.1795 101.92 66.3204 101.92 65.3051C101.92 64.3419 101.731 63.5609 101.354 62.9621C100.976 62.3633 100.482 61.8687 99.8698 61.4782C99.258 61.0877 98.5682 60.7818 97.8002 60.5605C97.0322 60.3393 96.2577 60.1245 95.4767 59.9162C94.3833 59.6299 93.4266 59.3825 92.6066 59.1743C91.7865 58.966 91.0251 58.7187 90.3222 58.4323C89.6453 58.146 89.1051 57.7359 88.7016 57.2023C88.2981 56.6686 88.0963 55.9071 88.0963 54.9178C88.0963 54.7356 88.1484 54.4102 88.2525 53.9416C88.3567 53.473 88.604 52.9979 88.9945 52.5163C89.385 52.0347 89.9837 51.6051 90.7908 51.2276C91.5978 50.8502 92.7042 50.6614 94.11 50.6614C95.0732 50.6614 95.9518 50.7656 96.7458 50.9738C97.5399 51.1821 98.2232 51.514 98.796 51.9696C99.3687 52.4252 99.8113 53.0044 100.124 53.7073C100.436 54.4102 100.592 55.2693 100.592 56.2846ZM118.672 56.2846H119.453C119.453 54.0457 118.802 52.4187 117.501 51.4034C116.199 50.3881 114.429 49.8804 112.19 49.8804C110.94 49.8804 109.886 50.0366 109.027 50.349C108.168 50.6614 107.465 51.0649 106.918 51.5596C106.372 52.0542 105.981 52.6009 105.747 53.1997C105.513 53.7984 105.395 54.3711 105.395 54.9178C105.395 56.0112 105.591 56.8833 105.981 57.5342C106.372 58.185 106.983 58.6927 107.816 59.0571C108.389 59.3175 109.04 59.5518 109.769 59.76C110.498 59.9683 111.344 60.1896 112.307 60.4239C113.166 60.6321 114.012 60.8404 114.845 61.0487C115.678 61.2569 116.414 61.5368 117.052 61.8882C117.69 62.2397 118.21 62.6888 118.614 63.2355C119.017 63.7822 119.219 64.4981 119.219 65.3832C119.219 66.2423 119.017 66.9712 118.614 67.57C118.21 68.1687 117.696 68.6569 117.071 69.0343C116.446 69.4118 115.75 69.6852 114.982 69.8544C114.214 70.0236 113.466 70.1082 112.737 70.1082C110.368 70.1082 108.552 69.581 107.289 68.5267C106.027 67.4723 105.395 65.8127 105.395 63.5478H104.614C104.614 66.0731 105.298 67.9214 106.664 69.0929C108.031 70.2644 110.055 70.8502 112.737 70.8502C113.596 70.8502 114.461 70.7525 115.334 70.5573C116.206 70.362 116.987 70.0431 117.677 69.6006C118.366 69.158 118.926 68.5853 119.356 67.8824C119.785 67.1795 120 66.3204 120 65.3051C120 64.3419 119.811 63.5609 119.434 62.9621C119.056 62.3633 118.562 61.8687 117.95 61.4782C117.338 61.0877 116.648 60.7818 115.88 60.5605C115.112 60.3393 114.338 60.1245 113.557 59.9162C112.463 59.6299 111.507 59.3825 110.687 59.1743C109.867 58.966 109.105 58.7187 108.402 58.4323C107.725 58.146 107.185 57.7359 106.782 57.2023C106.378 56.6686 106.176 55.9071 106.176 54.9178C106.176 54.7356 106.228 54.4102 106.333 53.9416C106.437 53.473 106.684 52.9979 107.075 52.5163C107.465 52.0347 108.064 51.6051 108.871 51.2276C109.678 50.8502 110.784 50.6614 112.19 50.6614C113.153 50.6614 114.032 50.7656 114.826 50.9738C115.62 51.1821 116.303 51.514 116.876 51.9696C117.449 52.4252 117.891 53.0044 118.204 53.7073C118.516 54.4102 118.672 55.2693 118.672 56.2846Z" fill="white"/>
</svg>
