<svg width="50" height="50" viewBox="0 0 50 50" fill="none" xmlns="http://www.w3.org/2000/svg">
<path fill-rule="evenodd" clip-rule="evenodd" d="M41.6667 2.08337C45.1185 2.08337 47.9167 4.8816 47.9167 8.33337V41.6667C47.9167 45.1186 45.1185 47.9167 41.6667 47.9167H8.33334C4.88156 47.9167 2.08334 45.1186 2.08334 41.6667V8.33337C2.08334 4.8816 4.88156 2.08337 8.33334 2.08337H41.6667ZM41.6667 6.25004C42.8173 6.25004 43.75 7.18279 43.75 8.33337V41.6667C43.75 42.8173 42.8173 43.75 41.6667 43.75H31.25V29.1665H35.5754C36.4721 29.1665 37.2681 28.5927 37.5519 27.7419L38.4748 24.9732C38.8121 23.9613 38.059 22.9165 36.9925 22.9165H31.25V18.7499C31.25 17.7082 32.2917 16.6665 33.3333 16.6665H37.5C38.6506 16.6665 39.5833 15.7338 39.5833 14.5832V13.1541C39.5833 12.4811 39.1535 11.8777 38.5027 11.706C35.7719 10.9854 33.3333 10.9854 33.3333 10.9854C28.125 10.9854 25 14.5832 25 17.7082V22.9165H20.8333C19.6828 22.9165 18.75 23.8492 18.75 24.9998V27.0832C18.75 28.2338 19.6827 29.1665 20.8333 29.1665H25V43.75H8.33334C7.18275 43.75 6.25 42.8173 6.25 41.6667V8.33337C6.25 7.18279 7.18275 6.25004 8.33334 6.25004H41.6667Z" fill="white"/>
</svg>
