<svg width="80" height="80" viewBox="0 0 80 80" fill="none" xmlns="http://www.w3.org/2000/svg">
<path d="M7.01667 36.8667C6.25814 37.7376 5.8403 38.8535 5.8403 40.0083C5.8403 41.1632 6.25814 42.2791 7.01667 43.15L36.8667 73C37.7375 73.7585 38.8534 74.1764 40.0083 74.1764C41.1632 74.1764 42.2791 73.7585 43.15 73L72.9833 43.15C73.7485 42.2823 74.1707 41.1652 74.1707 40.0083C74.1707 38.8515 73.7485 37.7344 72.9833 36.8667L43.15 7.01669C42.2918 6.23275 41.1618 5.81424 40 5.85002C38.841 5.81958 37.7162 6.24437 36.8667 7.03335L7.01667 36.8667Z" stroke="white" stroke-width="3" stroke-linecap="round" stroke-linejoin="round"/>
<path d="M43.8833 29.75L50.25 36.1167" stroke="white" stroke-width="3" stroke-linecap="round" stroke-linejoin="round"/>
<path d="M29 14.8666L36.1167 21.9833" stroke="white" stroke-width="3" stroke-linecap="round" stroke-linejoin="round"/>
<path d="M40 59.5167C43.0376 59.5167 45.5 57.0543 45.5 54.0167C45.5 50.9792 43.0376 48.5167 40 48.5167C36.9624 48.5167 34.5 50.9792 34.5 54.0167C34.5 57.0543 36.9624 59.5167 40 59.5167Z" stroke="white" stroke-width="3" stroke-linecap="round" stroke-linejoin="round"/>
<path d="M40 31.3666C43.0376 31.3666 45.5 28.9042 45.5 25.8666C45.5 22.8291 43.0376 20.3666 40 20.3666C36.9624 20.3666 34.5 22.8291 34.5 25.8666C34.5 28.9042 36.9624 31.3666 40 31.3666Z" stroke="white" stroke-width="3" stroke-linecap="round" stroke-linejoin="round"/>
<path d="M54.1333 45.5C57.1709 45.5 59.6333 43.0376 59.6333 40C59.6333 36.9624 57.1709 34.5 54.1333 34.5C51.0958 34.5 48.6333 36.9624 48.6333 40C48.6333 43.0376 51.0958 45.5 54.1333 45.5Z" stroke="white" stroke-width="3" stroke-linecap="round" stroke-linejoin="round"/>
<path d="M40 48.5167V31.3667" stroke="white" stroke-width="3" stroke-linecap="round" stroke-linejoin="round"/>
</svg>
