<svg width="40" height="40" viewBox="0 0 42 46" fill="none" xmlns="http://www.w3.org/2000/svg">
<path d="M27.3304 43.6667C27.6958 39.6983 28.2067 32.5546 26.2335 30.7698C24.0402 31.7619 48.1683 27.7938 36.1042 8.94444C36.8354 7.62169 37.201 4.97619 36.1042 2C32.8142 1.99979 29.524 2.99227 27.3304 4.97619C26.5992 4.64558 24.2596 3.98433 20.75 3.98433" stroke="white" stroke-width="4" stroke-linecap="round" stroke-linejoin="round"/>
<path d="M14.8248 43.6667C14.7098 42.2798 14.5788 40.5048 14.5328 38.7062M14.5328 38.7062C4.85438 38.7062 7.92525 36.1271 2 31.1667C5.95017 34.3412 11.296 37.0529 14.5168 37.7144M14.5328 38.7062C14.5244 38.3756 14.5188 38.0442 14.5168 37.7144M20.75 3.98433C17.5898 3.98433 15.4831 4.64558 14.8247 4.97619C12.8497 2.99227 9.88706 1.99979 6.9245 2C5.9369 4.97619 6.26617 7.62169 6.9245 8.94444C-3.93849 27.7938 17.7873 31.7619 15.8124 30.7698C14.7709 31.816 14.498 34.704 14.5168 37.7144" stroke="white" stroke-width="4" stroke-linecap="round" stroke-linejoin="round"/>
</svg>
