<svg width="40" height="40" viewBox="0 0 40 40" fill="none" xmlns="http://www.w3.org/2000/svg">
<g clip-path="url(#clip0_17_49)">
<mask id="mask0_17_49" style="mask-type:luminance" maskUnits="userSpaceOnUse" x="0" y="0" width="40" height="40">
<path d="M40 0H0V40H40V0Z" fill="white"/>
</mask>
<g mask="url(#mask0_17_49)">
<path fill-rule="evenodd" clip-rule="evenodd" d="M20 2.57579C9.90799 2.57579 1.73914 10.7028 1.73914 20.7129C1.73914 28.0624 6.1435 34.3881 12.4838 37.2339C13.1466 37.5314 13.7958 37.4137 14.302 37.0342C14.821 36.6452 15.1888 35.9756 15.1888 35.1881V35.1881C15.1888 34.6437 14.7864 34.1832 14.247 34.1102L12.927 33.9314C12.9105 33.9292 12.8941 33.9266 12.8779 33.9234C11.6295 33.6806 10.7884 33.2422 10.1719 32.6104C9.65284 32.0784 9.33654 31.4411 9.06845 30.9009C9.03674 30.8371 9.0057 30.7746 8.97509 30.7137C8.63575 30.0394 8.39389 29.5607 8.16306 29.1952C7.93869 28.8401 7.76311 28.6562 7.59019 28.5416C7.14925 28.2496 6.72719 27.7552 6.72719 27.1361C6.72719 26.7964 6.86416 26.4492 7.16105 26.2034C7.4408 25.9717 7.77729 25.8992 8.06975 25.8992C8.44054 25.8992 8.78841 26.0127 9.07886 26.1431C9.37566 26.2762 9.66955 26.4536 9.94471 26.6369C10.6145 27.0834 11.2749 27.6126 11.8334 28.2627C12.4149 28.9397 12.8259 29.3707 13.4474 29.4589C13.8336 29.5137 14.2264 29.5281 14.5708 29.5238C14.753 29.5215 14.9037 29.3873 14.9481 29.2106V29.2106V29.2106C15.033 28.8746 14.8493 28.5099 14.516 28.4153C14.2479 28.3393 13.9731 28.2527 13.6974 28.1549C12.6061 27.7679 11.3925 27.1676 10.5756 26.2544C9.67825 25.2514 9.12294 24.3576 8.81276 23.3097C8.51089 22.2899 8.46154 21.1856 8.46154 19.8242C8.46154 18.9197 8.63186 18.0767 8.87993 17.3361C9.39307 15.8043 9.67103 14.1573 9.48186 12.5529V12.5529C9.41865 12.0166 9.39796 11.4489 9.48331 10.9406C9.56549 10.4514 9.77535 9.85179 10.3231 9.48895C10.8523 9.13844 11.4708 9.15279 11.9543 9.24399C12.4571 9.33884 12.9786 9.5471 13.4581 9.78444V9.78444C14.8848 10.4905 16.4949 10.8281 18.0691 10.5916C18.6947 10.4976 19.351 10.4307 19.981 10.4169C19.9936 10.4166 20.0064 10.4166 20.019 10.4169C20.625 10.4302 21.244 10.4925 21.8323 10.5807C23.4039 10.8162 25.0124 10.4893 26.4366 9.78444V9.78444C26.9164 9.5471 27.4379 9.33884 27.9406 9.24399C28.424 9.15279 29.0426 9.13844 29.5719 9.48895C30.1195 9.85179 30.3294 10.4514 30.4115 10.9406C30.4969 11.4489 30.4761 12.0166 30.413 12.5529V12.5529C30.2238 14.1574 30.5018 15.8042 31.015 17.3361C31.263 18.0767 31.4334 18.9197 31.4334 19.8242C31.4334 21.1856 31.384 22.2899 31.0821 23.3097C30.772 24.3576 30.2166 25.2514 29.3194 26.2544C28.5025 27.1676 27.2886 27.7679 26.1975 28.1549C26.0717 28.1995 25.9462 28.2418 25.8213 28.2818C25.0891 28.5164 24.7061 29.2906 24.7061 30.0596V30.0596V35.2092C24.7061 35.9941 25.0716 36.6626 25.5886 37.0524C26.0934 37.4331 26.741 37.5532 27.404 37.2612C33.8024 34.4414 38.2609 28.1006 38.2609 20.7129C38.2609 10.7028 30.092 2.57579 20 2.57579ZM15.7936 31.1839C15.3872 31.242 15.7432 31.1913 15.7869 31.185C15.7869 31.185 15.7868 31.1849 15.7868 31.1849V31.1849L15.7728 31.1869L15.7253 31.1929C15.6853 31.1979 15.6288 31.2046 15.5583 31.2117C15.4173 31.2261 15.2185 31.2431 14.9809 31.2544C14.5104 31.2767 13.8651 31.2779 13.2034 31.1841C11.8842 30.9967 11.0841 30.0631 10.5648 29.4571C10.5479 29.4374 10.5314 29.4182 10.5152 29.3992V29.3992C10.4169 29.2847 10.261 29.4004 10.3292 29.535C10.3886 29.6522 10.4492 29.7726 10.5113 29.8961L10.528 29.9292C10.5577 29.9884 10.5864 30.0456 10.6141 30.1009C10.905 30.6816 11.0982 31.0672 11.4155 31.3924C11.7246 31.7092 12.2089 32.0149 13.1854 32.2082L16.1748 32.6131C16.6061 32.6716 16.9279 33.0404 16.9279 33.4764V35.1881C16.9279 36.5222 16.3036 37.7099 15.344 38.4292C14.3719 39.1581 13.0559 39.4001 11.7728 38.8241C4.8366 35.7109 0 28.7811 0 20.7129C0 9.72693 8.96111 0.833374 20 0.833374C31.0389 0.833374 40 9.72693 40 20.7129C40 28.8257 35.102 35.7722 28.1041 38.8561C26.8215 39.4214 25.5105 39.1742 24.5429 38.4446C23.5875 37.7241 22.967 36.5391 22.967 35.2092V30.0596C22.967 29.9429 22.8855 29.2691 22.4295 28.3629C22.3011 28.1079 22.3056 27.8062 22.4415 27.5552C22.5775 27.3044 22.8275 27.1361 23.1106 27.1047C23.681 27.0417 24.645 26.8571 25.6171 26.5124C26.6071 26.1612 27.4956 25.6824 28.0241 25.0916C28.8086 24.2146 29.1994 23.5419 29.4149 22.8142C29.6385 22.0586 29.6941 21.1786 29.6941 19.8242C29.6941 17.9231 28.6949 16.3251 28.2345 15.8103C28.0224 15.5733 27.9561 15.2392 28.062 14.9389C28.2936 14.2813 28.5784 13.2606 28.6859 12.3485C28.74 11.8892 28.743 11.5065 28.6965 11.2297V11.2297C28.6643 11.0372 28.4986 10.917 28.306 10.9486C28.292 10.9509 28.2776 10.9535 28.2625 10.9563C27.9786 11.0099 27.6171 11.1436 27.2069 11.3467C26.3909 11.7505 25.541 12.3476 25.0129 12.7741C24.7765 12.9648 24.4579 13.0183 24.1724 12.9152C23.5019 12.6729 21.671 12.1993 20 12.1593C18.3215 12.1995 16.3856 12.6756 15.7226 12.9152C15.437 13.0183 15.1184 12.9648 14.882 12.7741C14.3539 12.3476 13.504 11.7505 12.688 11.3467C12.2777 11.1436 11.9162 11.0099 11.6325 10.9563C11.6174 10.9535 11.603 10.9509 11.5891 10.9486C11.3964 10.917 11.2307 11.0371 11.1983 11.2297V11.2297C11.1519 11.5065 11.1549 11.8892 11.209 12.3485C11.3165 13.2606 11.6013 14.2813 11.8329 14.9389C11.9387 15.2392 11.8725 15.5733 11.6604 15.8103C11.2 16.3251 10.2007 17.9231 10.2007 19.8242C10.2007 21.1786 10.2564 22.0586 10.4801 22.8142C10.6955 23.5419 11.0862 24.2146 11.8707 25.0916C12.3992 25.6824 13.2878 26.1612 14.2778 26.5124C15.2499 26.8571 16.214 27.0417 16.7841 27.1047C17.1426 27.1442 17.4395 27.4014 17.5304 27.7509C17.6214 28.1004 17.4875 28.4701 17.1941 28.6799C16.9185 28.8769 16.7371 29.2297 16.6343 29.6376C16.5858 29.8301 16.5619 30.0072 16.5505 30.1356C16.5448 30.1991 16.5424 30.2487 16.5414 30.2799L16.5406 30.3116C16.5455 30.7487 16.2257 31.1222 15.7936 31.1839Z" fill="white"/>
</g>
</g>
<defs>
<clipPath id="clip0_17_49">
<rect width="40" height="40" fill="white"/>
</clipPath>
</defs>
</svg>
