<svg width="72" height="80" viewBox="0 0 72 80" fill="none" xmlns="http://www.w3.org/2000/svg">
<path d="M64.7439 0C68.6724 0 71.8654 3.1527 71.9289 7.06712L71.9298 7.18597V72.6581C71.9298 76.5867 68.7762 79.7796 64.8627 79.8431L64.7439 79.8441H7.25616C3.32759 79.8441 0.13462 76.6904 0.0711533 72.7769L0.0701904 72.6581V7.18597C0.0701904 3.25641 3.22387 0.0644096 7.13734 0.000962551L7.25616 0H64.7439ZM64.7439 3.9922H7.25616C5.5231 3.9922 4.10726 5.38097 4.06344 7.10368L4.06239 7.18597V72.6581C4.06239 74.3911 5.45116 75.807 7.17387 75.8508L7.25616 75.8519H64.7439C66.4779 75.8519 67.8928 74.4631 67.9366 72.7404L67.9376 72.6581V7.18597C67.9376 5.4254 66.5054 3.9922 64.7439 3.9922ZM18.0351 51.8986L27.0176 59.883L18.0351 67.8674V51.8986ZM26.0195 11.9766V34.6433C30.0057 33.3459 35.5778 31.9376 40.9903 31.9376C45.9256 31.9376 48.8799 33.8778 50.4887 35.5057C53.8877 38.9441 53.9686 43.3148 53.9641 43.8977L53.9639 43.9142L53.9649 67.8674H45.9805V44.024C45.9416 42.1607 45.0434 39.922 40.9903 39.922C32.9533 39.922 23.9479 43.9238 23.6805 44.0435L23.6751 44.046L18.0351 46.601V11.9766H26.0195ZM53.9649 11.9766C53.426 16.5118 51.5876 20.8593 47.9766 24.9513H39.9922C43.1301 20.8343 45.1002 16.5018 45.9805 11.9766H53.9649Z" fill="white"/>
</svg>
