<svg width="80" height="80" viewBox="0 0 80 80" fill="none" xmlns="http://www.w3.org/2000/svg">
<path d="M10 20.8333C10 14.8502 14.8502 10 20.8333 10H59.1667C65.1497 10 70 14.8502 70 20.8333V59.1667C70 65.1497 65.1497 70 59.1667 70H20.8333C14.8502 70 10 65.1497 10 59.1667V20.8333ZM40 31.6667C38.6193 31.6667 37.5 32.786 37.5 34.1667V54.1667C37.5 54.627 37.127 55 36.6667 55H32.5C31.1193 55 30 56.1193 30 57.5C30 58.8807 31.1193 60 32.5 60H36.6667C39.8883 60 42.5 57.3883 42.5 54.1667V34.1667C42.5 32.786 41.3807 31.6667 40 31.6667ZM46.6667 37.5V42.5C46.6667 45.7217 49.2783 48.3333 52.5 48.3333H54.1667C54.627 48.3333 55 48.7063 55 49.1667V54.1667C55 54.627 54.627 55 54.1667 55H49.1667C47.786 55 46.6667 56.1193 46.6667 57.5C46.6667 58.8807 47.786 60 49.1667 60H54.1667C57.3883 60 60 57.3883 60 54.1667V49.1667C60 45.945 57.3883 43.3333 54.1667 43.3333H52.5C52.0397 43.3333 51.6667 42.9603 51.6667 42.5V37.5C51.6667 37.0397 52.0397 36.6667 52.5 36.6667H57.5C58.8807 36.6667 60 35.5473 60 34.1667C60 32.786 58.8807 31.6667 57.5 31.6667H52.5C49.2783 31.6667 46.6667 34.2783 46.6667 37.5Z" fill="white"/>
</svg>
