<svg width="50" height="50" viewBox="0 0 50 50" fill="none" xmlns="http://www.w3.org/2000/svg">
<path d="M38.0208 7.8125H11.9792C9.67798 7.8125 7.8125 9.67798 7.8125 11.9792V38.0208C7.8125 40.322 9.67798 42.1875 11.9792 42.1875H38.0208C40.322 42.1875 42.1875 40.322 42.1875 38.0208V11.9792C42.1875 9.67798 40.322 7.8125 38.0208 7.8125Z" stroke="white" stroke-width="3"/>
<path d="M17.1875 22.3959V33.8542" stroke="white" stroke-width="3" stroke-linecap="round" stroke-linejoin="round"/>
<path d="M17.1875 18.75C18.3381 18.75 19.2708 17.8173 19.2708 16.6667C19.2708 15.5161 18.3381 14.5834 17.1875 14.5834C16.0369 14.5834 15.1041 15.5161 15.1041 16.6667C15.1041 17.8173 16.0369 18.75 17.1875 18.75Z" fill="white"/>
<path d="M32.8125 33.8542V27.0834C32.8125 24.4946 30.7138 22.3959 28.125 22.3959C25.5362 22.3959 23.4375 24.4946 23.4375 27.0834V33.8542" stroke="white" stroke-width="3" stroke-linecap="round"/>
</svg>
