<svg width="80" height="95" viewBox="0 0 80 95" fill="none" xmlns="http://www.w3.org/2000/svg">
<path d="M39.5525 68.8305C39.5525 68.8305 39.5525 38.0712 40.4125 38.0742C41.0775 38.0742 41.9425 77.7516 41.9425 77.7516C40.7525 77.5853 39.5525 71.2233 39.5525 68.8305ZM56.2225 38.4305C53.925 26.508 48.8925 16.2569 41.9525 8.34514L41.935 8.32733C41.09 6.79546 40.3175 5.03796 39.6975 3.18546L39.6375 2.98358C39.64 3.04296 39.64 3.11421 39.64 3.18546C39.64 4.8628 39.0075 6.36202 38.01 7.36843L38.0025 7.37436C29.0675 16.3816 23.3825 29.6548 23.195 44.5075V44.5461C23.1925 44.7301 23.1925 44.9469 23.1925 45.1636C23.1925 59.8797 29.155 72.9422 38.3675 81.13L38.465 81.2131L38.6825 81.4002C39.0842 84.931 39.4275 88.4697 39.7125 92.0164H41.215C41.63 87.59 42.19 83.7158 42.9225 79.9158L42.8075 80.6253C43.7975 79.8089 44.6625 78.9628 45.47 78.0455L45.4625 78.0544C52.465 70.3445 56.835 59.3601 56.835 47.1675C56.835 46.9864 56.835 46.8083 56.8325 46.6272V46.6539C56.825 43.7416 56.6025 40.8945 56.18 38.1306L56.2175 38.4245L56.2225 38.4305Z" fill="white"/>
</svg>
