<svg width="164" height="29" viewBox="0 0 164 29" fill="none" xmlns="http://www.w3.org/2000/svg">
<path d="M109.056 0H137.568V4.60375H126.247V28.7463H120.586V4.60375H109.056V0ZM62.0203 0V4.60375H39.1269V11.9987H57.5665V16.5663H39.1269V24.1787H62.0203V28.7463H33.5076V0H62.1035H62.0203ZM76.2974 0H68.8883L95.4446 28.7825H102.895L89.5756 14.3913L102.895 0.03625H95.4446L85.871 10.4038L76.2974 0.03625V0ZM83.9147 20.5538L80.1685 16.5663L68.8883 28.7825H76.2974L83.9147 20.5538Z" fill="white"/>
<path d="M33.7157 28.7463L7.07614 0H0V28.7463H5.66091V6.1625L26.5563 28.7463H33.7157ZM138.859 28.6012C138.443 28.6012 138.11 28.4562 137.818 28.2387C137.527 28.0212 137.36 27.6588 137.36 27.2962C137.36 26.9338 137.485 26.6437 137.777 26.39C138.068 26.1362 138.443 26.0275 138.859 26.0275C139.275 26.0275 139.608 26.1362 139.9 26.39C140.143 26.5837 140.302 26.8455 140.347 27.1301C140.393 27.4148 140.323 27.7043 140.149 27.9487C140.019 28.1388 139.837 28.2978 139.619 28.4117C139.401 28.5255 139.154 28.5906 138.901 28.6012H138.859ZM148.516 16.4575H151.013V24.9037C151.013 25.665 150.847 26.3537 150.472 26.8975C150.097 27.4446 149.547 27.8853 148.89 28.1662C148.224 28.4562 147.434 28.6375 146.518 28.6375C145.685 28.6375 144.978 28.4925 144.312 28.275C143.646 28.0575 143.146 27.6225 142.772 27.115C142.397 26.6437 142.189 26.0275 142.189 25.3025H144.686C144.728 25.5925 144.811 25.8825 144.978 26.1C145.144 26.3175 145.394 26.535 145.644 26.6437C145.935 26.7887 146.268 26.825 146.643 26.825C147.059 26.825 147.392 26.7525 147.642 26.6075C147.935 26.4547 148.168 26.2269 148.308 25.955C148.432 25.665 148.516 25.3025 148.516 24.8675V16.4937V16.4575ZM161.378 19.7562C161.352 19.5149 161.264 19.2817 161.12 19.0744C160.976 18.8671 160.779 18.6912 160.545 18.56C160.008 18.2729 159.384 18.1339 158.755 18.1612C158.214 18.1612 157.756 18.2337 157.382 18.3425C157.007 18.4875 156.716 18.705 156.549 18.9225C156.36 19.1239 156.247 19.371 156.225 19.6304C156.202 19.8897 156.272 20.1488 156.424 20.3725C156.549 20.5537 156.716 20.6987 156.965 20.8075L157.715 21.17L158.547 21.3512L159.879 21.6412C160.42 21.75 160.92 21.895 161.419 22.0763C161.896 22.2378 162.345 22.4575 162.751 22.7287C163.153 23.0119 163.474 23.3717 163.691 23.7802C163.907 24.1888 164.013 24.6352 164 25.085C164 25.81 163.792 26.4263 163.376 26.9338C162.917 27.5005 162.281 27.9408 161.544 28.2025C160.795 28.4925 159.838 28.6375 158.714 28.6375C157.631 28.6375 156.674 28.4925 155.883 28.2025C155.051 27.9125 154.468 27.4775 154.01 26.9338C153.547 26.3337 153.301 25.6267 153.303 24.9037H155.8C155.815 25.2788 155.963 25.6407 156.224 25.9394C156.485 26.2381 156.846 26.4589 157.257 26.5712C157.673 26.7162 158.173 26.7887 158.672 26.7887C159.213 26.7887 159.713 26.7162 160.129 26.5712C160.545 26.4263 160.878 26.2087 161.128 25.955C161.344 25.704 161.461 25.3987 161.461 25.085C161.461 24.7587 161.378 24.505 161.17 24.2875C160.902 24.0897 160.608 23.9194 160.295 23.78L158.963 23.4175L157.382 23.055C156.216 22.8012 155.301 22.4387 154.635 21.895C154.302 21.6369 154.04 21.3175 153.867 20.96C153.695 20.6026 153.615 20.2162 153.636 19.8287C153.629 19.1722 153.878 18.5332 154.343 18.0162C154.791 17.4549 155.411 17.015 156.133 16.7475C156.965 16.4575 157.798 16.3125 158.797 16.3125C159.754 16.3125 160.628 16.4575 161.378 16.7475C162.127 17.0375 162.71 17.4725 163.168 17.98C163.584 18.4875 163.792 19.0675 163.792 19.7925H161.378V19.7562Z" fill="white"/>
</svg>
