<svg width="80" height="80" viewBox="0 0 80 80" fill="none" xmlns="http://www.w3.org/2000/svg">
<path d="M70.5 19.6667L42.8333 4.00003C41.9467 3.58378 40.9794 3.36798 40 3.36798C39.0206 3.36798 38.0532 3.58378 37.1666 4.00003L9.49996 19.6667C8.64931 20.1577 7.94089 20.8614 7.44418 21.7087C6.94747 22.556 6.67953 23.5179 6.66663 24.5V55.5C6.67953 56.4821 6.94747 57.444 7.44418 58.2913C7.94089 59.1387 8.64931 59.8423 9.49996 60.3334L16.8333 64.5C18.749 65.632 20.9418 66.2091 23.1666 66.1667C28.3333 66.1667 31.3333 63 31.3333 57.6667V27.1667C31.3333 26.9457 31.2455 26.7337 31.0892 26.5774C30.9329 26.4212 30.721 26.3334 30.5 26.3334H27C26.7789 26.3334 26.567 26.4212 26.4107 26.5774C26.2544 26.7337 26.1666 26.9457 26.1666 27.1667V57.6667C26.1666 60.1667 23.6666 62.5 19.6666 60.5L12 56.1667C11.8965 56.0891 11.8125 55.9884 11.7546 55.8727C11.6967 55.757 11.6666 55.6294 11.6666 55.5V24.5C11.6781 24.1921 11.7959 23.8976 12 23.6667L39.5 8.16669H40.5L68 23.6667C68.204 23.8976 68.3218 24.1921 68.3333 24.5V55.5C68.3333 55.6294 68.3032 55.757 68.2453 55.8727C68.1875 55.9884 68.1035 56.0891 68 56.1667L40.5 71.6667C40.3479 71.7544 40.1755 71.8007 40 71.8007C39.8244 71.8007 39.652 71.7544 39.5 71.6667L32.5 67.6667C32.4083 67.5847 32.2896 67.5394 32.1666 67.5394C32.0436 67.5394 31.925 67.5847 31.8333 67.6667L27.6666 69.5C27.1666 69.6667 26.5 69.8334 27.8333 70.6667L37.1666 75.8334C38.0085 76.3854 38.9932 76.6795 40 76.6795C41.0067 76.6795 41.9915 76.3854 42.8333 75.8334L70.5 60.3334C71.3506 59.8423 72.059 59.1387 72.5557 58.2913C73.0524 57.444 73.3204 56.4821 73.3333 55.5V24.5C73.3204 23.5179 73.0524 22.556 72.5557 21.7087C72.059 20.8614 71.3506 20.1577 70.5 19.6667Z" fill="white"/>
<path d="M48.5 50.5C41.1667 50.5 39.6667 48.8333 39 45.3333C39 45.1565 38.9298 44.987 38.8047 44.8619C38.6797 44.7369 38.5101 44.6667 38.3333 44.6667H34.6667C34.4899 44.6667 34.3203 44.7369 34.1953 44.8619C34.0702 44.987 34 45.1565 34 45.3333C34 49.8333 36.5 55.3333 48.5 55.3333C57.1667 55.3333 62.1667 52 62.1667 46.1667C62.1667 40.3333 58.1667 38.6667 49.6667 37.6667C41.1667 36.6667 40.3333 36 40.3333 34C40.3333 32 41 30.3333 47.3333 30.3333C53.6667 30.3333 55.1667 31.5 56 35.1667C56.039 35.3577 56.1437 35.5291 56.296 35.6509C56.4482 35.7727 56.6384 35.8373 56.8333 35.8333H60.3333L61 35.5C61.0603 35.4324 61.1062 35.3531 61.1348 35.2672C61.1635 35.1812 61.1743 35.0903 61.1667 35C60.6667 28.5 56.1667 25.5 47.3333 25.5C38.5 25.5 34.8333 28.8333 34.8333 34.1667C34.8333 39.5 39.5 41.6667 47 42.5C54.5 43.3333 56.8333 44.5 56.8333 46.3333C56.8333 48.1667 54.3333 50.5 48.5 50.5Z" fill="white"/>
</svg>
