<svg width="40" height="40" viewBox="0 0 40 40" fill="none" xmlns="http://www.w3.org/2000/svg">
<g clip-path="url(#clip0_17_38)">
<path d="M39.9999 14.7997C39.9999 14.0669 39.4748 13.4709 38.8324 13.4709H27.3595V16.1261H36.4386L30.4836 21.0332L27.3595 18.4734V21.8417L29.8094 23.8276C30.2076 24.15 30.7669 24.15 31.1651 23.8251L37.6648 18.5564V25.574H27.3595V28.2291H38.8324C39.4748 28.2291 39.9999 27.6356 39.9999 26.9004V15.9771C39.9999 15.9453 39.9975 15.916 39.9951 15.8842C39.9975 15.8525 39.9999 15.8207 39.9999 15.7914V14.7997Z" fill="white"/>
<path d="M12.4939 25.4836C14.1696 25.4836 15.2443 23.2755 15.2443 19.9805C15.2443 17.2472 14.4505 14.4773 12.4939 14.4773C10.4251 14.4773 9.66052 17.2838 9.66052 19.9805C9.66052 23.1241 10.6522 25.4836 12.4939 25.4836Z" fill="white"/>
<path d="M0 36.6194L24.9023 38.4465V1.55591L0 3.74692V36.6194ZM12.6087 10.4348C16.8613 10.4348 19.6971 14.2892 19.6971 19.7924C19.6971 26.4924 16.0943 29.5627 12.3815 29.5627C8.32682 29.5627 5.20762 26.0454 5.20762 20.1319C5.21006 14.2135 8.15828 10.4348 12.6087 10.4348Z" fill="white"/>
</g>
<defs>
<clipPath id="clip0_17_38">
<rect width="40" height="40" fill="white"/>
</clipPath>
</defs>
</svg>
