<svg width="80" height="80" viewBox="0 0 80 80" fill="none" xmlns="http://www.w3.org/2000/svg">
<path d="M79.6729 45.0791C82.4724 23.163 66.9951 3.12665 45.1191 0.327151C23.243 -2.47235 3.12665 13.0049 0.32715 34.8809C-2.47234 56.757 13.0049 76.8334 34.8809 79.6729C56.797 82.4724 76.8334 66.9951 79.6729 45.0791Z" fill="white"/>
<path d="M54.4374 25.6825L37.5605 42.5595L32.8013 37.8004C49.3983 21.2033 51.038 22.6431 54.4374 25.6825Z" fill="#17191A"/>
<path d="M37.5605 42.9594C37.4405 42.9594 37.3605 42.9194 37.2805 42.8394L32.4814 38.0803C32.3214 37.9203 32.3214 37.6804 32.4814 37.5204C49.3583 20.6434 51.118 22.2431 54.6774 25.4426C54.7574 25.5226 54.7973 25.6025 54.7973 25.7225C54.7973 25.8425 54.7574 25.9225 54.6774 26.0025L37.8004 42.8394C37.7604 42.9194 37.6404 42.9594 37.5605 42.9594ZM33.3612 37.8003L37.5605 41.9996L53.8375 25.7225C50.8781 23.083 48.8784 22.2831 33.3612 37.8003Z" fill="white"/>
<path d="M42.3996 47.3986L37.8004 42.7994L54.6774 25.9225C59.1966 30.4817 52.4378 37.8803 42.3996 47.3986Z" fill="#17191A"/>
<path d="M42.3996 47.7986C42.2796 47.7986 42.1996 47.7586 42.1196 47.6786L37.5205 43.0794C37.4405 42.9994 37.4405 42.9194 37.4405 42.7995C37.4405 42.6795 37.4805 42.5995 37.5605 42.5195L54.4374 25.6426C54.5974 25.4826 54.8374 25.4826 54.9973 25.6426C56.0371 26.6024 56.597 27.9621 56.557 29.3619C56.4771 33.8011 51.438 39.4401 42.7195 47.6786C42.5996 47.7586 42.4796 47.7986 42.3996 47.7986ZM38.3603 42.7995C40.9199 45.399 41.9997 46.4388 42.3996 46.8387C49.1184 40.4399 55.6372 33.8811 55.6772 29.3619C55.7172 28.3221 55.3173 27.2823 54.6374 26.4824L38.3603 42.7995Z" fill="white"/>
<path d="M32.8813 37.9203L36.2807 41.3197C36.3607 41.3997 36.3607 41.4797 36.2807 41.5597C36.2407 41.5996 36.2407 41.5996 36.2007 41.5996L29.162 43.1194C28.8021 43.1594 28.4821 42.9194 28.4021 42.5595C28.3621 42.3595 28.4421 42.1595 28.5621 42.0396L32.6414 37.9603C32.7213 37.8803 32.8413 37.8403 32.8813 37.9203Z" fill="#17191A"/>
<path d="M29.042 43.5193C28.4421 43.5193 28.0022 43.0394 28.0022 42.4395C28.0022 42.1596 28.1222 41.8796 28.3221 41.6797L32.4014 37.6004C32.6414 37.4004 32.9613 37.4004 33.2013 37.6004L36.6006 40.9998C36.8406 41.1998 36.8406 41.5597 36.6006 41.7997C36.5207 41.8796 36.4407 41.9196 36.3207 41.9596L29.282 43.4794C29.202 43.4794 29.122 43.5193 29.042 43.5193ZM32.7613 38.3603L28.842 42.2796C28.7621 42.3596 28.7221 42.4795 28.8021 42.5995C28.842 42.7195 28.962 42.7595 29.082 42.7195L35.6808 41.2798L32.7613 38.3603Z" fill="white"/>
<path d="M63.3558 16.3242C60.7963 13.8446 56.677 13.9246 54.1975 16.5242C51.7179 19.1237 51.7979 23.2029 54.3974 25.6825C56.5171 27.7221 59.7165 28.0821 62.236 26.5623L57.6769 22.0032L63.3558 16.3242Z" fill="#17191A"/>
<path d="M58.8766 27.8822C55.0773 27.8822 51.9979 24.8027 51.9979 21.0034C51.9979 17.2041 55.0773 14.1246 58.8766 14.1246C60.6363 14.1246 62.356 14.8045 63.6358 16.0443C63.7158 16.1243 63.7557 16.2043 63.7557 16.3242C63.7557 16.4442 63.7158 16.5242 63.6358 16.6042L58.2367 22.0032L62.476 26.2424C62.6359 26.4024 62.6359 26.6424 62.476 26.8023C62.436 26.8423 62.436 26.8423 62.396 26.8823C61.3562 27.5222 60.1164 27.8822 58.8766 27.8822ZM58.8766 14.9645C55.5172 14.9645 52.7977 17.684 52.8377 21.0434C52.8377 24.4028 55.5572 27.1223 58.9166 27.0823C59.8365 27.0823 60.7563 26.8823 61.5961 26.4424L57.3969 22.2832C57.3169 22.2032 57.2769 22.1232 57.2769 22.0032C57.2769 21.8832 57.3169 21.8032 57.3969 21.7233L62.7559 16.3642C61.6761 15.4444 60.3164 14.9645 58.8766 14.9645Z" fill="white"/>
<path d="M63.4758 16.4442L63.3958 16.3643L57.6768 22.0032L62.196 26.5224C62.6359 26.2425 63.0758 25.9225 63.4358 25.5626C65.9953 23.0431 65.9953 18.9638 63.4758 16.4442Z" fill="#17191A"/>
<path d="M62.236 26.9623C62.116 26.9623 62.0361 26.9223 61.9561 26.8424L57.3969 22.2832C57.3169 22.2032 57.2769 22.1232 57.2769 22.0032C57.2769 21.8832 57.3169 21.8033 57.3969 21.7233L63.0759 16.0443C63.2358 15.8843 63.4758 15.8843 63.6358 16.0443L63.7557 16.1243C66.4353 18.8038 66.4353 23.123 63.7957 25.8425C63.3958 26.2425 62.9559 26.6024 62.476 26.8823C62.356 26.9223 62.276 26.9623 62.236 26.9623ZM58.2367 22.0032L62.276 26.0425C62.596 25.8425 62.9159 25.5626 63.1559 25.3226C65.4354 23.043 65.5554 19.3237 63.3558 16.9241L58.2367 22.0032Z" fill="white"/>
<path d="M55.1173 26.4024C54.1574 25.4425 52.5977 25.4425 51.6379 26.4024L36.5606 41.4796L39.0802 43.9992L55.0373 30.0017C56.0771 29.1219 56.1571 27.5622 55.2772 26.5223C55.1972 26.4824 55.1573 26.4424 55.1173 26.4024Z" fill="#17191A"/>
<path d="M39.0402 44.3991C38.9202 44.3991 38.8402 44.3592 38.7603 44.2792L36.2407 41.7596C36.0807 41.5997 36.0807 41.3597 36.2407 41.1997L51.318 26.1224C52.4378 25.0026 54.2375 25.0026 55.3573 26.1224C56.4771 27.2422 56.4771 29.0419 55.3573 30.1617C55.3173 30.2017 55.2773 30.2417 55.2373 30.2817L39.2802 44.2792C39.2402 44.3592 39.1602 44.3991 39.0402 44.3991ZM37.1205 41.4797L39.0802 43.4393L54.7574 29.6818C55.6372 28.9619 55.7172 27.6422 54.9973 26.7623C54.2775 25.8825 52.9577 25.8025 52.0779 26.5224C52.0379 26.5624 51.9979 26.6024 51.9179 26.6423L37.1205 41.4797Z" fill="white"/>
<path d="M25.0027 58.6366C24.8427 58.7166 24.7627 58.8765 24.8027 59.0365L25.4826 61.916C25.6426 62.3159 25.4026 62.7958 24.9627 62.9158C24.6428 63.0358 24.2828 62.9158 24.0829 62.6759L19.6837 58.3166L34.0411 43.9592L39.0002 44.0392L42.3596 47.3986C41.5597 48.0785 36.7206 52.7576 25.0027 58.6366Z" fill="#17191A"/>
<path d="M24.6828 63.3158C24.3628 63.3158 24.0429 63.1958 23.8429 62.9558L19.4837 58.5966C19.4037 58.5166 19.3637 58.4366 19.3637 58.3167C19.3637 58.1967 19.4037 58.1167 19.4837 58.0367L33.8411 43.6793C33.9211 43.5993 34.0411 43.5593 34.121 43.5593L39.0802 43.6393C39.2001 43.6393 39.2801 43.6793 39.3601 43.7593L42.7195 47.1187C42.7995 47.1987 42.8395 47.3186 42.8395 47.4386C42.8395 47.5586 42.7995 47.6386 42.6795 47.7186L42.3996 47.9585C38.1603 51.6779 32.4014 55.3972 25.2426 58.9566L25.9225 61.796C26.0425 62.3159 25.8025 62.8758 25.3226 63.1558C25.0827 63.2758 24.8827 63.3158 24.6828 63.3158ZM20.2835 58.3167L24.4028 62.3959C24.5228 62.5959 24.7627 62.6759 24.9627 62.5559C25.1627 62.4359 25.2426 62.196 25.1227 61.996L24.4428 59.1165C24.3628 58.7566 24.5228 58.4366 24.8427 58.2767C31.9214 54.7173 37.6404 51.038 41.8397 47.3986L38.8802 44.4392L34.281 44.3592L20.2835 58.3167Z" fill="white"/>
<path d="M16.2843 61.756L19.7237 58.3167L24.8428 63.4357L16.6842 62.8758C16.3243 62.8358 16.0843 62.5159 16.1243 62.156C16.1243 61.996 16.1643 61.836 16.2843 61.756Z" fill="#17191A"/>
<path d="M24.8427 63.7956L16.6442 63.2357C16.0443 63.1957 15.6444 62.6758 15.6844 62.076C15.7244 61.836 15.8044 61.596 16.0043 61.4361L19.4437 57.9967C19.6037 57.8367 19.8436 57.8367 20.0036 57.9967L25.1227 63.1158C25.2427 63.2357 25.2827 63.3957 25.2027 63.5557C25.1227 63.7157 25.0027 63.7956 24.8427 63.7956ZM19.7237 58.8765L16.5642 62.036C16.4443 62.1159 16.4443 62.3159 16.5642 62.3959C16.6042 62.4359 16.6442 62.4759 16.7242 62.4759L23.8029 62.9558L19.7237 58.8765Z" fill="white"/>
<path d="M32.6413 45.7989C32.4014 45.7989 32.2414 45.5989 32.2414 45.399C32.2414 45.279 32.2814 45.199 32.3614 45.119L36.2407 41.2397C36.4006 41.0798 36.6406 41.0798 36.8006 41.2397L39.3201 43.7593C39.4401 43.8793 39.4801 43.9992 39.4401 44.1592C39.4001 44.2792 39.2801 44.3992 39.1202 44.4392L32.7213 45.7989C32.6813 45.7989 32.6413 45.7989 32.6413 45.7989ZM36.5206 42.0796L33.8811 44.7191L38.2003 43.7993L36.5206 42.0796Z" fill="white"/>
<path d="M39.0002 44.0392L34.601 44.9991C34.2811 45.0791 33.9611 44.8791 33.8811 44.5592C33.8411 44.3592 33.8811 44.1592 34.0411 43.9993L36.4807 41.5597L39.0002 44.0392Z" fill="#17191A"/>
<path d="M34.521 45.399C33.9611 45.399 33.5212 44.9591 33.5212 44.3992C33.5212 44.1192 33.6412 43.8793 33.8011 43.6793L36.2407 41.2397C36.4007 41.0798 36.6406 41.0798 36.8006 41.2397L39.3201 43.7593C39.4401 43.8793 39.4801 43.9992 39.4401 44.1592C39.4001 44.2792 39.2801 44.3992 39.1202 44.4392L34.721 45.399C34.641 45.399 34.561 45.399 34.521 45.399ZM36.5206 42.0796L34.361 44.2392C34.281 44.3192 34.281 44.3992 34.321 44.4791C34.361 44.5591 34.441 44.5991 34.561 44.5991L38.2403 43.7993L36.5206 42.0796Z" fill="white"/>
<path d="M63.5158 20.2835C63.4358 20.0436 63.1558 19.9236 62.9159 20.0036C62.6759 20.0835 62.556 20.3635 62.6359 20.6035C62.6359 20.6434 62.6759 20.6834 62.6759 20.7234C62.9159 21.2033 62.8359 21.8032 62.516 22.2432C62.356 22.4431 62.396 22.7231 62.556 22.883C62.7559 23.043 63.0359 23.003 63.1958 22.8031C63.7957 22.0432 63.9157 21.0834 63.5158 20.2835Z" fill="white"/>
</svg>
