<svg width="80" height="80" viewBox="0 0 80 80" fill="none" xmlns="http://www.w3.org/2000/svg">
<g clip-path="url(#clip0_6_187)">
<path fill-rule="evenodd" clip-rule="evenodd" d="M50.976 73.832C49.048 73.832 47.488 72.2643 47.488 70.3262C47.488 68.3881 49.048 66.8242 50.976 66.8242C52.904 66.8242 54.464 68.3881 54.464 70.3262C54.464 72.2643 52.904 73.832 50.976 73.832ZM40.288 80C60.6 80 59.332 71.1465 59.332 71.1465L59.308 61.9746H39.928V59.2207H67.004C67.004 59.2207 80 60.7045 80 40.1055C80 19.5063 68.66 20.2324 68.66 20.2324H61.8879V29.7949C61.8879 29.7949 62.252 41.1934 50.728 41.1934H31.504C31.504 41.1934 20.704 41.022 20.704 51.6895V69.3242C20.704 69.3242 19.064 80 40.288 80ZM29.028 6.16797C30.956 6.16797 32.512 7.73575 32.512 9.67383C32.512 11.6119 30.956 13.1758 29.028 13.1758C27.1 13.1758 25.54 11.6119 25.54 9.67383C25.54 7.73575 27.1 6.16797 29.028 6.16797ZM39.712 0C19.404 0 20.672 8.85352 20.672 8.85352L20.696 18.0254H40.076V20.7793H12.996C12.996 20.7793 0 19.2955 0 39.8945C0 60.4937 11.344 59.7676 11.344 59.7676H18.1121V50.2051C18.1121 50.2051 17.748 38.8066 29.276 38.8066H48.496C48.496 38.8066 59.296 38.978 59.296 28.3105V10.6758C59.296 10.6758 60.936 0 39.712 0Z" fill="white"/>
</g>
<defs>
<clipPath id="clip0_6_187">
<rect width="80" height="80" fill="white"/>
</clipPath>
</defs>
</svg>
