<svg width="80" height="80" viewBox="0 0 80 80" fill="none" xmlns="http://www.w3.org/2000/svg">
<path d="M35.7825 55.5275C37.1575 55.59 38.5625 55.635 39.985 55.635C41.4225 55.635 42.8425 55.605 44.235 55.5275C42.8425 57.3275 41.4674 58.92 40.0124 60.4375L40.0325 60.4175C38.585 58.9175 37.195 57.3225 35.885 55.6625L35.7825 55.5275ZM21.5375 53.5275C24.2449 54.215 27.5474 54.8 30.9174 55.16L31.245 55.1875C33.3075 58.02 35.3925 60.5125 37.63 62.8575L37.6025 62.8275C34.325 66.485 29.9025 69.055 24.9 69.9775L24.7625 69.9975C24.7525 69.9975 24.7425 69.9975 24.7325 69.9975C24.1124 69.9975 23.5275 69.845 23.015 69.575L23.035 69.585C20.955 68.3975 20.0525 63.855 20.755 58.0175C20.9225 56.58 21.1975 55.0675 21.535 53.525L21.5375 53.5275ZM58.495 53.495C58.79 54.68 59.0675 56.19 59.265 57.725L59.2875 57.94C60.005 63.775 59.12 68.3125 57.0575 69.525C56.5975 69.78 56.0475 69.93 55.4625 69.93C55.405 69.93 55.3475 69.9275 55.29 69.925H55.2975C50.165 68.9875 45.7449 66.435 42.4749 62.8225L42.4575 62.8025C44.6549 60.495 46.725 58.0075 48.6225 55.39L48.7675 55.18C52.4575 54.795 55.7649 54.2 58.9874 53.3875L58.495 53.4925V53.495ZM24.46 44.165C25.085 45.39 25.74 46.61 26.4599 47.835C27.1783 49.0533 27.9125 50.2433 28.6625 51.405C26.4925 51.0875 24.3975 50.6875 22.395 50.2C22.9575 48.2325 23.6625 46.195 24.4575 44.16L24.46 44.165ZM55.53 44.1025C56.3575 46.155 57.06 48.2025 57.6425 50.1875C55.6425 50.6775 53.53 51.0925 51.345 51.405C52.095 50.2325 52.845 49.025 53.5475 47.7875C54.25 46.57 54.9075 45.325 55.535 44.1L55.53 44.1025ZM19.0475 30.73C20.1375 34.425 21.3075 37.515 22.67 40.495L22.4825 40.04C21.3175 42.5525 20.165 45.625 19.22 48.7875L19.09 49.3C17.325 48.7575 15.905 48.225 14.5225 47.6275L14.8099 47.7375C9.39995 45.435 5.89995 42.4075 5.89995 40.0075C5.89995 37.6075 9.39995 34.565 14.8099 32.2725C16.1224 31.71 17.5625 31.2025 19.0475 30.73ZM60.895 30.7175C62.4075 31.185 63.845 31.7075 65.19 32.2725C70.6 34.585 74.1 37.6075 74.1 40.0075C74.085 42.4075 70.585 45.4425 65.175 47.74C63.8625 48.3025 62.425 48.8075 60.9425 49.28C59.8425 45.5725 58.6725 42.485 57.315 39.5L57.505 39.97C58.665 37.46 59.82 34.3875 60.7625 31.225L60.895 30.71V30.7175ZM51.325 28.61C53.4975 28.9325 55.59 29.3275 57.5925 29.82C57.03 31.795 56.3275 33.825 55.53 35.86C54.905 34.6425 54.25 33.415 53.53 32.1925C52.8275 30.9675 52.0775 29.775 51.3275 28.6125L51.325 28.61ZM28.645 28.61C27.895 29.7875 27.145 30.9925 26.445 32.235C25.7425 33.4525 25.085 34.6775 24.46 35.9025C23.6325 33.8525 22.93 31.81 22.3475 29.82C24.3475 29.3525 26.455 28.935 28.6425 28.615L28.645 28.61ZM40 27.815C42.3125 27.815 44.615 27.92 46.88 28.105C48.1483 29.9233 49.38 31.86 50.575 33.915C51.7366 35.915 52.7966 37.9417 53.755 39.995C52.7925 42.0425 51.7375 44.0875 50.59 46.0875C49.4025 48.15 48.175 50.1125 46.9025 51.93C44.6275 52.1275 42.3224 52.235 39.9975 52.235C37.6849 52.235 35.3825 52.125 33.1175 51.945C31.85 50.1275 30.6125 48.1825 29.4225 46.135C28.2608 44.135 27.2008 42.1083 26.2425 40.055C27.19 38.0025 28.26 35.9525 29.4074 33.95C30.5949 31.8875 31.8225 29.9325 33.095 28.115C35.3699 27.915 37.6749 27.81 40 27.81V27.815ZM39.9524 19.6125C41.4025 21.1125 42.7924 22.705 44.1 24.365L44.2 24.4975C42.825 24.435 41.4199 24.3925 39.9975 24.3925C38.56 24.3925 37.1399 24.4225 35.7475 24.4975C37.1375 22.6975 38.5125 21.105 39.97 19.5875L39.95 19.6075L39.9524 19.6125ZM24.7 10.0825C29.8325 11.0225 34.25 13.575 37.5224 17.185L37.54 17.205C35.3424 19.515 33.2725 22.0025 31.375 24.625L31.2299 24.835C27.5424 25.2175 24.235 25.8075 21.015 26.62L21.505 26.515C21.155 24.985 20.895 23.5025 20.7125 22.08C19.995 16.245 20.88 11.7075 22.9425 10.5C23.4575 10.2575 24.06 10.1075 24.695 10.0875H24.7024L24.7 10.0825ZM55.225 10.02V10.04C55.2575 10.04 55.295 10.0375 55.335 10.0375C55.9325 10.0375 56.495 10.185 56.99 10.445L56.97 10.435C59.05 11.6275 59.9525 16.1675 59.25 22.0075C59.0825 23.445 58.8075 24.96 58.47 26.505C55.7575 25.81 52.455 25.2225 49.085 24.865L48.765 24.8375C46.7 22.0025 44.615 19.51 42.3775 17.1625L42.4074 17.1925C45.6849 13.5425 50.1 10.9725 55.0925 10.045L55.2325 10.0225L55.225 10.02ZM55.24 6.61498C49.135 7.54248 43.85 10.5075 39.99 14.785L39.97 14.8075C36.0825 10.5325 30.7975 7.58749 24.8425 6.69499L24.7024 6.67749C24.67 6.67749 24.63 6.67749 24.59 6.67749C23.3625 6.67749 22.2099 6.99999 21.2125 7.56499L21.2474 7.54749C16.9524 10.025 15.99 17.745 18.2075 27.4325C8.69745 30.37 2.51245 35.065 2.51245 40.0125C2.51245 44.98 8.72995 49.6875 18.2675 52.6025C16.0675 62.3275 17.05 70.06 21.3549 72.535C22.2999 73.0775 23.435 73.395 24.6425 73.395C24.6975 73.395 24.7525 73.395 24.805 73.3925H24.7975C30.9025 72.465 36.1875 69.4975 40.0474 65.2175L40.0675 65.195C43.955 69.4725 49.24 72.4175 55.195 73.31L55.335 73.3275C55.3725 73.3275 55.42 73.3275 55.465 73.3275C56.685 73.3275 57.8325 73.0075 58.825 72.45L58.79 72.4675C63.0825 69.9925 64.0475 62.2725 61.83 52.5825C71.305 49.67 77.49 44.965 77.49 40.01C77.49 35.0425 71.2725 30.335 61.735 27.4125C63.935 17.6975 62.9525 9.95749 58.6475 7.47999C57.6925 6.93249 56.5475 6.60999 55.3275 6.60999C55.295 6.60999 55.2625 6.60999 55.2299 6.60999H55.235L55.24 6.61498ZM46.9675 40.0125C46.9675 43.87 43.84 46.9975 39.9825 46.9975C36.125 46.9975 32.9975 43.87 32.9975 40.0125C32.9975 36.155 36.125 33.0275 39.9825 33.0275C41.9125 33.0275 43.6575 33.81 44.9225 35.0725C46.1875 36.3375 46.9675 38.0825 46.9675 40.0125Z" fill="white"/>
</svg>
