<svg width="417" height="342" viewBox="0 0 417 342" fill="none" xmlns="http://www.w3.org/2000/svg">
<g clip-path="url(#clip0_1_24)">
<path d="M146.202 307.251L146.333 306.63C146.362 306.493 149.316 292.895 158.231 285.511C167.147 278.127 178.86 279.578 178.977 279.594L179.511 279.664L179.38 280.285C179.351 280.422 176.397 294.02 167.482 301.404C158.566 308.789 146.853 307.337 146.736 307.322L146.202 307.251ZM158.765 286.429C151.228 292.672 148.088 303.527 147.395 306.263C149.787 306.443 159.417 306.723 166.947 300.486C174.477 294.249 177.623 283.39 178.318 280.652C175.924 280.472 166.296 280.192 158.765 286.429Z" fill="#F1F1F1"/>
<path d="M162.002 289.729C157.506 301.448 146.913 307.154 146.913 307.154C146.913 307.154 143.61 293.86 148.106 282.142C152.603 270.423 163.196 264.717 163.196 264.717C163.196 264.717 166.499 278.011 162.002 289.729Z" fill="#F1F1F1"/>
<path d="M47.8598 303.014C43.0111 285.226 42.6142 265.011 50.8085 248.508C54.292 241.492 59.1879 235.434 65.1927 231.474C72.1192 226.906 80.1149 225.412 87.9372 225.206C104.946 224.759 121.839 229.66 138.85 227.126C146.482 225.989 154.094 223.439 160.636 218.494C166.293 214.218 171.202 208.234 174.1 200.977C176.923 194.052 177.562 186.146 175.899 178.705C174.292 171.668 170.508 165.087 164.975 161.718C159.948 158.657 153.776 158.575 148.582 161.107C142.994 163.831 138.97 169.465 138.114 176.677C137.046 185.672 140.442 194.573 144.222 202.102C147.86 209.35 152.271 216.152 157.63 221.709C162.821 227.09 168.943 231.332 175.676 233.217C182.063 235.006 188.953 234.848 195.162 232.206C201.569 229.473 206.908 224.025 210.165 216.898C213.8 209.056 215.069 199.995 214.944 191.117C214.796 180.633 212.941 170.254 211.286 159.994C209.606 149.589 207.802 139.214 205.872 128.87C204.931 123.827 203.961 118.793 202.961 113.767C202.752 112.717 201.397 113.162 201.606 114.212C205.582 134.218 209.3 154.383 212.121 174.671C213.46 184.301 214.298 194.29 212.619 203.94C211.203 212.077 208.026 219.966 202.592 225.35C192.221 235.623 176.753 234.323 165.654 226.57C159.668 222.389 154.59 216.533 150.386 209.989C146.04 203.225 141.992 195.489 140.158 187.185C139.21 182.897 138.941 178.32 140.035 174.032C140.879 170.734 142.536 167.815 144.789 165.654C149.01 161.569 154.977 160.103 160.251 161.479C166.194 163.03 170.791 168.365 173.259 174.854C175.82 181.71 176.119 189.467 174.096 196.575C171.968 204.076 167.555 210.489 162.25 215.152C156.211 220.46 149.014 223.471 141.665 224.955C125.176 228.284 108.613 223.93 92.0935 223.531C84.5655 223.348 76.8494 224.04 69.7345 227.178C63.396 229.995 57.7981 234.768 53.5127 241.011C44.112 254.615 41.5097 272.667 43.7349 289.781C44.3498 294.421 45.276 298.996 46.5046 303.46C46.7831 304.481 48.1406 304.044 47.8598 303.014Z" fill="#E5E5E5"/>
<path d="M51.1145 298.969H42.2133V307.351H51.1145V298.969Z" fill="#0AD3FF"/>
<path d="M202.375 113.972H361.138C391.214 113.972 415.595 93.5234 415.595 57.6466C415.595 21.7698 391.214 6.81625 361.138 6.81625H311.288C251.137 6.81625 202.375 42.2184 202.375 113.972Z" fill="white"/>
<path d="M361.138 115.648H200.969V113.972C200.969 79.6411 212.193 51.3477 233.426 32.1504C252.97 14.4801 279.894 5.13983 311.288 5.13983H361.138C377.241 5.13983 390.835 9.38059 400.45 17.4039C411.432 26.5671 417 40.1066 417 57.6465C417 75.2314 411.306 90.0712 400.533 100.562C390.543 110.29 376.552 115.648 361.138 115.648ZM203.789 112.295H361.138C392.87 112.295 414.189 90.3337 414.189 57.6465C414.189 13.2824 377.089 8.49293 361.138 8.49293H311.288C259.69 8.49293 204.58 35.8007 203.789 112.295Z" fill="#E5E5E5"/>
<path d="M293.82 40.3031H275.068V45.6883H293.82V40.3031Z" fill="#0AD3FF"/>
<path d="M358.758 40.3031H352.16V45.6883H358.758V40.3031Z" fill="#0AD3FF"/>
<path d="M371.954 40.3031H365.356V45.6883H371.954V40.3031Z" fill="#0AD3FF"/>
<path d="M345.215 40.3031H300.418V45.6883H345.215V40.3031Z" fill="#0AD3FF"/>
<path d="M270.206 75.0999H251.454V80.4851H270.206V75.0999Z" fill="#0AD3FF"/>
<path d="M335.144 75.0999H328.546V80.4851H335.144V75.0999Z" fill="#0AD3FF"/>
<path d="M348.34 75.0999H341.742V80.4851H348.34V75.0999Z" fill="#0AD3FF"/>
<path d="M321.601 75.0999H276.804V80.4851H321.601V75.0999Z" fill="#0AD3FF"/>
<path d="M347.646 52.3163H328.893V57.7015H347.646V52.3163Z" fill="#0AD3FF"/>
<path d="M372.996 52.3163H354.244V57.7015H372.996V52.3163Z" fill="#0AD3FF"/>
<path d="M386.192 52.3163H379.594V57.7015H386.192V52.3163Z" fill="#0AD3FF"/>
<path d="M271.248 52.3163H264.65V57.7015H271.248V52.3163Z" fill="#0AD3FF"/>
<path d="M322.643 52.3163H277.846V57.7015H322.643V52.3163Z" fill="#0AD3FF"/>
<path d="M308.752 63.9152H290V69.3004H308.752V63.9152Z" fill="#0AD3FF"/>
<path d="M283.402 63.9152H264.65V69.3004H283.402V63.9152Z" fill="#0AD3FF"/>
<path d="M386.192 63.9152H379.594V69.3004H386.192V63.9152Z" fill="#0AD3FF"/>
<path d="M372.996 63.9152H366.398V69.3004H372.996V63.9152Z" fill="#0AD3FF"/>
<path d="M359.8 63.9152H315.003V69.3004H359.8V63.9152Z" fill="#0AD3FF"/>
<path d="M178.961 307.91H0.468483C0.344234 307.91 0.225073 307.851 0.137215 307.746C0.0493576 307.642 0 307.5 0 307.351C0 307.203 0.0493576 307.061 0.137215 306.956C0.225073 306.851 0.344234 306.792 0.468483 306.792H178.961C179.085 306.792 179.204 306.851 179.292 306.956C179.38 307.061 179.429 307.203 179.429 307.351C179.429 307.5 179.38 307.642 179.292 307.746C179.204 307.851 179.085 307.91 178.961 307.91Z" fill="#CBCBCB"/>
<path d="M108.22 342H53.4071C53.2828 342 53.1637 341.941 53.0758 341.836C52.988 341.731 52.9386 341.589 52.9386 341.441C52.9386 341.293 52.988 341.151 53.0758 341.046C53.1637 340.941 53.2828 340.882 53.4071 340.882H108.22C108.344 340.882 108.463 340.941 108.551 341.046C108.639 341.151 108.688 341.293 108.688 341.441C108.688 341.589 108.639 341.731 108.551 341.836C108.463 341.941 108.344 342 108.22 342Z" fill="#CBCBCB"/>
<path d="M56.4154 188.605C56.9923 187.717 57.3991 186.69 57.607 185.594C57.8149 184.498 57.8188 183.362 57.6186 182.264C57.4184 181.166 57.0189 180.134 56.4482 179.241C55.8774 178.347 55.1494 177.614 54.3154 177.092L57.711 150.088L46.9191 156.057L45.3491 180.785C44.7074 182.514 44.6198 184.465 45.1029 186.266C45.586 188.067 46.6063 189.595 47.9704 190.559C49.3344 191.522 50.9475 191.856 52.504 191.496C54.0605 191.136 55.4522 190.107 56.4154 188.605Z" fill="#FFB7B7"/>
<path d="M89.0446 332.004L81.2772 332.003L77.5822 296.264L89.046 296.265L89.0446 332.004Z" fill="#FFB7B7"/>
<path d="M91.0256 340.985L65.9803 340.984V340.606C65.9804 337.522 67.0076 334.565 68.8357 332.384C70.6638 330.203 73.1433 328.978 75.7286 328.978H75.7292L91.0261 328.979L91.0256 340.985Z" fill="#1A1A21"/>
<path d="M116.807 310.69L109.553 314.023L95.3251 282.234L106.031 277.315L116.807 310.69Z" fill="#FFB7B7"/>
<path d="M121.366 318.228L97.9766 328.974L97.8626 328.622C96.9328 325.741 97 322.539 98.0496 319.718C99.0992 316.897 101.045 314.688 103.46 313.579L103.46 313.579L117.745 307.015L121.366 318.228Z" fill="#1A1A21"/>
<path d="M66.4703 167.621L64.2755 182.725L99.3925 310.144L118.14 303.317L104.744 256.32L91.2076 186.634L90.9144 161.796L66.4703 167.621Z" fill="#1A1A21"/>
<path d="M74.1942 325.223L80.5182 273.634L79.4983 263.897L90.9144 234.011L89.5989 163.176L114.493 167.621L104.744 258.859L92.0481 312.445L89.4977 324.006L74.1942 325.223Z" fill="#1A1A21"/>
<path d="M78.02 45.0076C85.9083 45.0076 92.3031 37.3794 92.3031 27.9695C92.3031 18.5597 85.9083 10.9315 78.02 10.9315C70.1317 10.9315 63.737 18.5597 63.737 27.9695C63.737 37.3794 70.1317 45.0076 78.02 45.0076Z" fill="#FFB8B8"/>
<path d="M92.1174 9.84048C89.8384 5.42586 86.2712 2.17277 82.1023 0.707326L79.0402 3.62943L80.2307 0.221121C79.2296 0.0389391 78.2164 -0.0309125 77.2043 0.0124737L74.4493 4.23793L75.5896 0.157209C73.1989 0.511596 70.8958 1.45302 68.8254 2.92212C66.7549 4.39122 64.9622 6.35612 63.56 8.69292C60.0536 14.7242 60.2882 23.1081 63.737 29.1866C64.6838 25.716 65.0064 22.4631 65.9532 18.9925C66.6972 19.1135 67.4513 19.1178 68.1963 19.0055L69.3482 15.7995L69.6699 18.8699C73.24 18.4988 78.5353 17.6843 81.9199 16.9379L81.5908 14.5825L83.5598 16.5398C84.5968 16.2551 85.2124 15.9969 85.1615 15.7995C87.6787 20.6402 90.1728 23.7321 92.6899 28.5728C93.6454 21.7448 95.3323 16.0692 92.1174 9.84048Z" fill="#BA8028"/>
<path d="M105.769 49.4002C105.769 49.4002 78.5683 46.5158 66.6631 58.3026L62.9718 163.97L65.0075 172.216C65.0075 172.216 74.7438 174.534 86.558 170.535C98.3721 166.537 114.493 172.216 114.493 172.216L116.226 107.512L105.769 49.4002Z" fill="#CBCBCB"/>
<path d="M65.7252 165.929L74.2137 63.1323L72.6117 54.2682C72.6117 54.2682 56.2352 59.7855 50.2679 70.2618L61.038 159.342V167.621L65.7252 165.929Z" fill="#23222B"/>
<path d="M103.78 159.102C103.78 159.102 81.0069 66.9497 89.1794 50.1123C89.1794 50.1123 105.618 44.5825 113.473 51.403L117.823 108.002C117.823 108.002 126.551 140.363 119.858 147.973L121.327 155.584C121.327 155.584 112.398 156.212 110.486 156.506C108.574 156.801 103.78 159.102 103.78 159.102Z" fill="#23222B"/>
<path d="M55.345 69.652L50.2679 70.2618C50.2679 70.2618 48.4428 71.4442 48.6672 76.6997C48.8916 81.9551 43.3991 158.969 46.1454 163.97L44.5557 170.492L55.7781 174.143L56.4448 167.621C56.4448 167.621 60.9907 150.763 61.5726 146.48C62.1544 142.197 55.345 69.652 55.345 69.652Z" fill="#23222B"/>
<path d="M111.066 157.821C111.045 156.698 111.231 155.583 111.61 154.555C111.99 153.526 112.554 152.61 113.262 151.87C113.97 151.13 114.806 150.584 115.71 150.271C116.615 149.958 117.566 149.885 118.496 150.057L129.235 125.943L134.933 138.399L123.861 159.389C123.514 161.234 122.612 162.864 121.325 163.969C120.039 165.074 118.457 165.578 116.88 165.384C115.303 165.191 113.84 164.314 112.768 162.92C111.697 161.526 111.091 159.712 111.066 157.821Z" fill="#FFB7B7"/>
<path d="M106.915 54.3928L112.962 51.403C112.962 51.403 122.809 57.7875 123.598 64.0905C124.388 70.3936 143.874 111.198 143.874 111.198C143.874 111.198 136.907 147.524 130.647 149.729L127.245 154.206L117.847 146.982L120.892 143.35C120.892 143.35 120.812 124.133 123.62 120.691C123.62 120.691 115.716 96.5592 112.145 94.1252C108.574 91.6912 106.915 54.3928 106.915 54.3928Z" fill="#23222B"/>
</g>
<defs>
<clipPath id="clip0_1_24">
<rect width="417" height="342" fill="white"/>
</clipPath>
</defs>
</svg>
