<svg width="80" height="80" viewBox="0 0 80 80" fill="none" xmlns="http://www.w3.org/2000/svg">
<path fill-rule="evenodd" clip-rule="evenodd" d="M40 20.12C31.11 20.12 25.5567 24.5367 23.3333 33.3733C26.6667 28.9567 30.5567 27.3 35 28.4033C37.5367 29.0333 39.35 30.8633 41.3533 32.8867C44.6233 36.1833 48.4067 40 56.6667 40C65.5567 40 71.11 35.5833 73.3333 26.7467C70 31.1633 66.1133 32.82 61.6667 31.7167C59.13 31.0867 57.3167 29.2567 55.31 27.2333C52.0433 23.9333 48.2633 20.12 40 20.12ZM23.3333 40C14.4433 40 8.89001 44.4167 6.66667 53.2533C10 48.8333 13.89 47.18 18.3333 48.2833C20.87 48.9133 22.6833 50.7433 24.69 52.7667C27.9567 56.0633 31.74 59.88 40.0033 59.88C48.8933 59.88 54.4467 55.4633 56.67 46.6267C53.3367 51.0433 49.4467 52.7 45.0033 51.5967C42.4667 50.9667 40.6533 49.1367 38.65 47.1133C35.3767 43.8167 31.5933 40 23.3333 40Z" fill="white"/>
</svg>
