<svg width="154" height="33" viewBox="0 0 154 33" fill="none" xmlns="http://www.w3.org/2000/svg">
<g clip-path="url(#clip0_7_192)">
<path d="M76.7279 8.25C70.7421 8.25 66.3887 11.8594 66.3887 17.5312C66.3887 23.2031 71.2862 26.8125 77.2721 26.8125C81.0813 26.8125 84.3463 25.2656 85.9788 23.2031L82.1696 20.625C81.0813 22.1719 78.9046 22.6875 77.2721 22.6875C74.5512 22.6875 72.3746 21.1406 71.8304 19.0781H87.0671V17.5312C87.0671 11.8594 82.7138 8.25 76.7279 8.25ZM71.8304 15.9844C72.3746 13.9219 74.0071 12.375 76.7279 12.375C79.4488 12.375 81.0813 13.9219 81.6254 15.9844H71.8304ZM135.498 8.25C129.512 8.25 125.159 11.8594 125.159 17.5312C125.159 23.2031 130.057 26.8125 136.042 26.8125C139.307 26.8125 142.572 25.2656 144.749 23.2031L140.396 20.625C139.307 22.1719 137.675 22.6875 136.042 22.6875C133.322 22.6875 131.145 21.1406 130.057 19.0781H145.293L145.837 17.5312C145.837 11.8594 141.484 8.25 135.498 8.25ZM130.057 15.9844C131.145 13.9219 132.777 12.375 135.498 12.375C138.219 12.375 139.852 13.9219 140.396 15.9844H130.057ZM108.834 17.5312C108.834 20.625 111.011 22.6875 114.276 22.6875C116.452 22.6875 118.085 21.6562 119.173 20.1094L123.526 22.6875C121.894 25.2656 118.629 26.8125 114.276 26.8125C108.29 26.8125 103.936 23.2031 103.936 17.5312C103.936 11.8594 108.29 8.25 114.276 8.25C118.629 8.25 121.894 9.79688 123.526 12.375L119.173 14.9531C118.085 13.4062 116.452 12.375 114.276 12.375C111.011 12.375 108.834 14.4375 108.834 17.5312ZM154 2.57812V26.2969H149.102V2.57812H154ZM20.1343 0L40.2686 33H0L20.1343 0ZM70.1979 2.57812L55.5053 27.3281L40.2686 2.57812H45.7102L55.5053 18.0469L64.7562 2.57812H70.1979ZM102.304 8.76562V13.9219L100.671 13.4062C97.4064 13.4062 95.2297 15.4688 95.2297 18.5625V26.2969H90.3322V8.76562H95.2297V13.4062C95.2297 10.8281 98.4947 8.76562 102.304 8.76562Z" fill="white"/>
</g>
<defs>
<clipPath id="clip0_7_192">
<rect width="154" height="33" fill="white"/>
</clipPath>
</defs>
</svg>
