<svg width="80" height="80" viewBox="0 0 80 80" fill="none" xmlns="http://www.w3.org/2000/svg">
<g clip-path="url(#clip0_7_221)">
<path d="M77.1625 8.62L60.705 0.702503C58.79 -0.222497 56.5125 0.167503 55.015 1.665L23.4925 30.4275L9.755 20.01C8.48 19.0325 6.6825 19.1125 5.4975 20.1925L1.0975 24.2025C-0.36 25.5175 -0.36 27.81 1.085 29.125L13 39.9975L1.085 50.87C-0.36 52.185 -0.36 54.4775 1.0975 55.7925L5.4975 59.8025C6.695 60.8825 8.48 60.9625 9.755 59.985L23.4925 49.555L55.03 78.33C56.515 79.8275 58.7925 80.2175 60.7075 79.2925L77.18 71.3625C78.9125 70.53 80.005 68.785 80.005 66.8575V13.12C80.005 11.205 78.8975 9.4475 77.1675 8.615L77.1625 8.62ZM60.0125 58.165L36.08 40L60.0125 21.835V58.165Z" fill="white"/>
</g>
<defs>
<clipPath id="clip0_7_221">
<rect width="80" height="80" fill="white"/>
</clipPath>
</defs>
</svg>
