<svg width="80" height="80" viewBox="0 0 80 80" fill="none" xmlns="http://www.w3.org/2000/svg">
<g clip-path="url(#clip0_7_223)">
<path fill-rule="evenodd" clip-rule="evenodd" d="M36.5835 41.7363C36.6035 49.7319 36.6276 63.3168 36.6476 73.875C51.1038 75.8299 65.5599 77.8452 79.992 80C79.992 67.3949 80.008 54.845 79.992 42.8516C65.5238 42.8516 51.0596 41.7363 36.5835 41.7363ZM0 41.7402V68.8867C10.9033 70.3579 21.8065 71.764 32.6897 73.3711C32.7098 62.8689 32.6817 52.3636 32.6817 41.8613C21.7865 41.8813 10.8952 41.7043 0 41.7402ZM0 11.373V38.4434C10.9033 38.4714 21.8065 38.3064 32.7098 38.3184C32.7018 27.8401 32.7018 17.3747 32.6897 6.89648C21.7784 8.25972 10.8672 9.70197 0 11.373ZM80 37.8867C65.5519 37.9427 51.1038 38.163 36.6476 38.207C36.6396 27.5569 36.6396 16.9195 36.6476 6.27734C51.0757 4.07454 65.5358 2.00288 79.992 0C80 12.633 79.992 25.2537 80 37.8867Z" fill="white"/>
</g>
<defs>
<clipPath id="clip0_7_223">
<rect width="80" height="80" fill="white"/>
</clipPath>
</defs>
</svg>
